<svg xmlns="http://www.w3.org/2000/svg" width="28.31" height="23" viewBox="0 0 28.31 23"><title>twi-w</title><g id="圖層_2" data-name="圖層 2"><g id="圖層_1-2" data-name="圖層 1"><path d="M28.31,2.72A12.23,12.23,0,0,1,25,3.64,5.76,5.76,0,0,0,27.52.43a11.71,11.71,0,0,1-3.68,1.41,5.8,5.8,0,0,0-10,4,6.38,6.38,0,0,0,.13,1.33A16.46,16.46,0,0,1,2,1.06,5.81,5.81,0,0,0,3.75,8.81,5.61,5.61,0,0,1,1.13,8.1v.06a5.84,5.84,0,0,0,4.65,5.71,6.2,6.2,0,0,1-1.52.19,5,5,0,0,1-1.1-.1,5.85,5.85,0,0,0,5.42,4,11.68,11.68,0,0,1-7.19,2.48A12.66,12.66,0,0,1,0,20.4,16.4,16.4,0,0,0,8.9,23c10.68,0,16.52-8.85,16.52-16.51,0-.26,0-.51,0-.75A11.61,11.61,0,0,0,28.31,2.72Z" style="fill:#fff"/></g></g></svg>