<svg xmlns="http://www.w3.org/2000/svg" width="12.43" height="23" viewBox="0 0 12.43 23"><title>fb-w</title><g id="圖層_2" data-name="圖層 2"><g id="圖層_1-2" data-name="圖層 1"><path d="M12,0H9C5.63,0,3.47,2.22,3.47,5.66V8.27h-3A.47.47,0,0,0,0,8.74v3.78A.47.47,0,0,0,.47,13h3v9.54a.47.47,0,0,0,.47.47H7.85a.47.47,0,0,0,.47-.47V13h3.5a.47.47,0,0,0,.47-.47V8.74a.45.45,0,0,0-.14-.33.47.47,0,0,0-.33-.14H8.32V6.06C8.32,5,8.57,4.45,10,4.45h2A.46.46,0,0,0,12.43,4V.47A.47.47,0,0,0,12,0Z" style="fill:#fff"/></g></g></svg>