<svg xmlns="http://www.w3.org/2000/svg" width="89.09" height="89.09" viewBox="0 0 89.09 89.09"><title>logo</title><g id="圖層_2" data-name="圖層 2"><g id="圖層_1-2" data-name="圖層 1"><path d="M44.54,0A44.55,44.55,0,1,0,89.09,44.54,44.54,44.54,0,0,0,44.54,0Zm0,86.79A42.25,42.25,0,1,1,86.79,44.54,42.25,42.25,0,0,1,44.54,86.79Z" style="fill:#fff;fill-rule:evenodd"/><path d="M42.76,8a.53.53,0,0,0-.53.53v6.36a.53.53,0,0,1-.53.53h-3a.54.54,0,0,1-.54-.53V8.53A.53.53,0,0,0,37.6,8H36.32a.54.54,0,0,0-.54.53v6.36a.53.53,0,0,1-.53.53h-3a.53.53,0,0,1-.53-.53V8.53A.54.54,0,0,0,31.15,8H29.87a.54.54,0,0,0-.54.53v8.71a.54.54,0,0,0,.54.53H44.05a.53.53,0,0,0,.53-.53V8.53A.53.53,0,0,0,44.05,8Z" style="fill:#fff"/><path d="M21.23,27.47a.54.54,0,0,0,.54-.53V25.65a.54.54,0,0,0-.54-.53H9.09a.53.53,0,0,0-.53.53v1.29a.53.53,0,0,0,.53.53h1.76a.53.53,0,0,1,.53.53V41.72a.54.54,0,0,1-.53.54H9.09a.53.53,0,0,0-.53.53v1.29a.53.53,0,0,0,.53.53H21.23a.54.54,0,0,0,.54-.53V42.79a.54.54,0,0,0-.54-.53H19.47a.54.54,0,0,1-.53-.54V28a.53.53,0,0,1,.53-.53ZM16.59,41.72a.54.54,0,0,1-.54.54H14.27a.54.54,0,0,1-.53-.54V28a.53.53,0,0,1,.53-.53h1.78a.54.54,0,0,1,.54.53Z" style="fill:#fff"/><path d="M44.05,30.28H38.67a.54.54,0,0,1-.54-.53V28a.54.54,0,0,1,.54-.53H44a.53.53,0,0,0,.53-.53V25.65a.53.53,0,0,0-.53-.53H29.89a.54.54,0,0,0-.54.53v1.29a.54.54,0,0,0,.54.53h5.36a.53.53,0,0,1,.53.53v1.75a.53.53,0,0,1-.53.53H29.87a.54.54,0,0,0-.54.53V44a.54.54,0,0,0,.54.53h1.28a.54.54,0,0,0,.54-.53V33.16a.53.53,0,0,1,.53-.53h.88a.53.53,0,0,1,.53.53V44a.54.54,0,0,0,.54.53h1.28A.53.53,0,0,0,36,44V33.16a.54.54,0,0,1,.54-.53h.88a.53.53,0,0,1,.53.53V44a.54.54,0,0,0,.54.53h1.28a.53.53,0,0,0,.53-.53V33.16a.54.54,0,0,1,.54-.53h.88a.53.53,0,0,1,.53.53V44a.53.53,0,0,0,.53.53h1.29a.53.53,0,0,0,.53-.53V30.81A.53.53,0,0,0,44.05,30.28Z" style="fill:#fff"/><circle cx="15.05" cy="12.89" r="5.3" style="fill:#fff"/></g></g></svg>