<svg xmlns="http://www.w3.org/2000/svg" viewBox="0 0 23.52 19.11"><defs><style>.cls-1{fill:#fff;}</style></defs><title>twi</title><g id="圖層_2" data-name="圖層 2"><g id="圖層_1-2" data-name="圖層 1"><path class="cls-1" d="M23.52,2.26A9.71,9.71,0,0,1,20.74,3,4.72,4.72,0,0,0,22.86.36a9.8,9.8,0,0,1-3.05,1.17,4.83,4.83,0,0,0-8.35,3.29,4.88,4.88,0,0,0,.12,1.1,13.61,13.61,0,0,1-9.94-5A4.82,4.82,0,0,0,3.12,7.32,4.73,4.73,0,0,1,.94,6.73v0A4.84,4.84,0,0,0,4.8,11.52a4.68,4.68,0,0,1-1.26.16,4.53,4.53,0,0,1-.91-.08A4.86,4.86,0,0,0,7.13,15a9.7,9.7,0,0,1-6,2.05A8.77,8.77,0,0,1,0,17a13.65,13.65,0,0,0,7.4,2.16A13.63,13.63,0,0,0,21.12,5.39c0-.21,0-.42,0-.62A9.47,9.47,0,0,0,23.52,2.26Z"/></g></g></svg>