<svg xmlns="http://www.w3.org/2000/svg" viewBox="0 0 10.33 19.11"><defs><style>.cls-1{fill:#fff;}</style></defs><title>fb</title><g id="圖層_2" data-name="圖層 2"><g id="圖層_1-2" data-name="圖層 1"><path class="cls-1" d="M9.94,0H7.46A4.35,4.35,0,0,0,2.88,4.7V6.87H.39A.39.39,0,0,0,0,7.26V10.4a.38.38,0,0,0,.39.39H2.88v7.93a.39.39,0,0,0,.39.39H6.52a.38.38,0,0,0,.39-.39V10.79H9.83a.38.38,0,0,0,.38-.39V7.26A.4.4,0,0,0,10.1,7a.36.36,0,0,0-.27-.12H6.91V5c0-.88.21-1.33,1.36-1.33H9.94a.38.38,0,0,0,.39-.39V.39A.39.39,0,0,0,9.94,0Z"/></g></g></svg>