<svg xmlns="http://www.w3.org/2000/svg" width="58.09" height="58.09" viewBox="0 0 58.09 58.09"><title>logo</title><g id="圖層_2" data-name="圖層 2"><g id="圖層_1-2" data-name="圖層 1"><path d="M29,0A29,29,0,1,0,58.09,29,29,29,0,0,0,29,0Zm0,56.59A27.55,27.55,0,1,1,56.59,29,27.54,27.54,0,0,1,29,56.59Z" style="fill-rule:evenodd"/><path d="M27.88,5.21a.35.35,0,0,0-.34.35V9.71a.35.35,0,0,1-.35.35h-2a.35.35,0,0,1-.35-.35V5.56a.35.35,0,0,0-.34-.35h-.84a.35.35,0,0,0-.35.35V9.71a.35.35,0,0,1-.35.35H21a.35.35,0,0,1-.35-.35V5.56a.35.35,0,0,0-.35-.35h-.84a.35.35,0,0,0-.34.35v5.68a.35.35,0,0,0,.34.35h9.25a.35.35,0,0,0,.35-.35V5.56a.35.35,0,0,0-.35-.35Z"/><path d="M13.85,17.91a.34.34,0,0,0,.34-.35v-.83a.35.35,0,0,0-.34-.35H5.93a.35.35,0,0,0-.35.35v.83a.34.34,0,0,0,.35.35H7.08a.35.35,0,0,1,.34.35v9a.34.34,0,0,1-.34.34H5.93a.35.35,0,0,0-.35.35v.84a.35.35,0,0,0,.35.35h7.92a.35.35,0,0,0,.34-.35V27.9a.35.35,0,0,0-.34-.35H12.7a.34.34,0,0,1-.35-.34V18.26a.35.35,0,0,1,.35-.35Zm-3,9.3a.35.35,0,0,1-.35.34H9.3A.34.34,0,0,1,9,27.21V18.26a.35.35,0,0,1,.34-.35h1.17a.35.35,0,0,1,.35.35Z"/><path d="M28.72,19.74H25.21a.35.35,0,0,1-.35-.34V18.26a.35.35,0,0,1,.35-.35h3.5a.35.35,0,0,0,.35-.35v-.83a.35.35,0,0,0-.35-.35H19.49a.35.35,0,0,0-.35.35v.83a.35.35,0,0,0,.35.35H23a.35.35,0,0,1,.35.35V19.4a.34.34,0,0,1-.35.34H19.47a.35.35,0,0,0-.34.35v8.6a.35.35,0,0,0,.34.35h.84a.35.35,0,0,0,.35-.35V21.62a.35.35,0,0,1,.35-.34h.57a.35.35,0,0,1,.35.34v7.07a.35.35,0,0,0,.35.35h.84a.35.35,0,0,0,.34-.35V21.62a.35.35,0,0,1,.35-.34h.58a.34.34,0,0,1,.34.34v7.07a.35.35,0,0,0,.35.35h.84a.35.35,0,0,0,.35-.35V21.62a.34.34,0,0,1,.34-.34h.58a.35.35,0,0,1,.35.34v7.07a.35.35,0,0,0,.34.35h.84a.35.35,0,0,0,.35-.35v-8.6A.35.35,0,0,0,28.72,19.74Z"/><circle cx="9.81" cy="8.41" r="3.46"/></g></g></svg>